<?xml version="1.0" standalone="no"?>
<!DOCTYPE svg PUBLIC "-//W3C//DTD SVG 20010904//EN"
 "http://www.w3.org/TR/2001/REC-SVG-20010904/DTD/svg10.dtd">
<svg version="1.0" xmlns="http://www.w3.org/2000/svg"
 width="344.000000pt" height="344.000000pt" viewBox="0 0 344.000000 344.000000"
 preserveAspectRatio="xMidYMid meet">

<g transform="translate(0.000000,344.000000) scale(0.100000,-0.100000)"
fill="#000000" stroke="none">
<path d="M1640 2995 c-70 -22 -152 -76 -182 -120 -58 -84 -72 -245 -47 -560
l12 -142 -27 -58 c-14 -32 -51 -88 -80 -125 -80 -99 -142 -198 -202 -325 -66
-138 -112 -273 -116 -340 l-3 -50 43 3 c41 4 47 1 90 -45 26 -26 81 -101 122
-166 41 -65 110 -172 153 -239 81 -124 97 -159 97 -216 l0 -33 268 3 c147 2
277 -1 290 -5 21 -8 22 -6 22 40 0 26 7 88 16 137 8 48 13 90 11 92 -2 3 -29
-11 -58 -31 -74 -48 -198 -95 -273 -102 -91 -8 -199 18 -275 67 -34 22 -61 43
-61 47 0 5 17 17 38 28 32 17 37 26 40 59 4 44 12 35 -203 213 -71 60 -143
128 -160 151 -28 41 -30 50 -29 125 1 62 8 98 27 148 23 61 98 200 82 154 -50
-151 -74 -290 -58 -334 8 -20 12 -9 27 65 23 116 62 208 141 328 84 128 123
225 135 329 9 73 8 83 -9 102 -49 54 -49 87 0 133 l30 28 -22 38 c-15 26 -22
54 -22 90 0 183 165 196 182 14 6 -59 8 -63 31 -63 14 -1 39 -4 56 -7 l31 -7
-5 53 c-6 70 11 118 54 156 44 38 82 39 125 3 63 -53 78 -152 35 -236 -15 -30
-19 -47 -11 -47 25 0 45 -36 43 -81 -1 -34 16 -87 75 -236 42 -105 97 -236
122 -292 58 -127 77 -215 79 -368 0 -68 4 -123 8 -123 14 0 70 93 89 146 43
121 18 236 -72 339 -41 46 -42 48 -11 26 57 -40 104 -94 129 -148 31 -66 32
-176 5 -275 -24 -85 -45 -118 -77 -118 -26 0 -75 -19 -75 -30 0 -3 5 -11 11
-17 5 -5 12 -31 13 -57 4 -56 11 -65 58 -72 49 -8 102 19 138 71 27 40 59 60
105 67 30 5 54 86 55 185 0 151 -78 339 -236 563 -122 174 -160 240 -196 350
-27 83 -32 111 -34 222 -6 256 -76 394 -236 469 -64 29 -84 34 -168 36 -63 2
-110 -2 -140 -12z"/>
<path d="M1520 2540 c-24 -24 -26 -79 -5 -120 18 -35 17 -35 55 -15 25 13 30
22 30 51 0 40 -22 89 -45 98 -9 3 -24 -3 -35 -14z"/>
<path d="M1827 2540 c-58 -46 -42 -138 27 -155 34 -8 40 -7 57 14 29 35 26
105 -6 136 -29 30 -45 31 -78 5z"/>
<path d="M1610 2375 c-14 -16 -3 -20 19 -6 8 5 9 11 3 15 -5 3 -15 -1 -22 -9z"/>
<path d="M1734 2365 c21 -16 32 -13 21 4 -3 6 -14 11 -23 11 -15 -1 -15 -2 2
-15z"/>
<path d="M1811 2259 c-103 -53 -119 -59 -175 -59 -53 0 -71 5 -119 34 -62 37
-77 32 -24 -7 82 -62 147 -72 239 -37 68 26 200 101 206 118 6 19 -5 15 -127
-49z"/>
</g>
</svg>
