<?xml version="1.0" standalone="no"?>
<!DOCTYPE svg PUBLIC "-//W3C//DTD SVG 20010904//EN"
 "http://www.w3.org/TR/2001/REC-SVG-20010904/DTD/svg10.dtd">
<svg version="1.0" xmlns="http://www.w3.org/2000/svg"
 width="64.000000pt" height="64.000000pt" viewBox="0 0 64.000000 64.000000"
 preserveAspectRatio="xMidYMid meet">

<g transform="translate(0.000000,64.000000) scale(0.100000,-0.100000)"
fill="#000000" stroke="none">
<path d="M236 479 c-71 -8 -172 -51 -190 -80 -5 -9 -6 -24 -3 -33 6 -14 20
-16 89 -14 47 2 83 7 83 13 0 6 -34 12 -75 15 l-75 5 35 23 c55 35 107 46 225
46 119 1 193 -17 233 -55 18 -16 22 -31 22 -85 0 -48 3 -65 13 -62 7 3 13 28
15 65 3 53 0 64 -23 91 -33 39 -84 59 -186 72 -46 5 -86 9 -89 9 -3 -1 -36 -5
-74 -10z"/>
<path d="M247 374 c-8 -8 1 -24 14 -24 5 0 9 7 9 15 0 15 -12 20 -23 9z"/>
<path d="M306 358 c-36 -56 -40 -77 -21 -98 10 -11 28 -20 41 -20 12 0 24 -5
26 -12 2 -6 10 -8 16 -4 22 13 -5 46 -38 46 -35 0 -37 8 -10 60 22 43 10 65
-14 28z"/>
<path d="M40 243 c0 -43 4 -83 8 -90 5 -8 43 -13 107 -15 l100 -3 5 -50 5 -50
100 1 c81 0 110 5 153 24 52 23 92 60 92 86 0 22 -24 16 -35 -9 -15 -34 -91
-66 -185 -77 -100 -11 -112 -5 -109 54 3 68 0 106 -10 106 -5 0 -11 -12 -13
-27 l-3 -28 -92 -3 -93 -3 0 81 c0 64 -3 80 -15 80 -12 0 -15 -15 -15 -77z"/>
<path d="M527 302 c-11 -12 -17 -36 -17 -70 0 -51 -15 -77 -26 -48 -9 24 -26
19 -22 -6 2 -15 11 -24 26 -26 37 -6 52 15 52 73 0 34 5 57 15 65 14 12 12 30
-4 30 -4 0 -15 -8 -24 -18z"/>
<path d="M411 261 c-6 -11 -11 -47 -11 -80 0 -63 -16 -85 -22 -29 -5 49 -28
48 -28 -1 0 -47 26 -69 60 -51 17 9 20 21 20 80 0 70 5 81 28 58 16 -16 29 -1
16 20 -16 25 -51 27 -63 3z"/>
<path d="M580 205 c0 -9 5 -15 11 -13 6 2 11 8 11 13 0 5 -5 11 -11 13 -6 2
-11 -4 -11 -13z"/>
</g>
</svg>
